<svg xmlns="http://www.w3.org/2000/svg" xmlns:xlink="http://www.w3.org/1999/xlink" version="1.1" id="Layer_1"  viewBox="0 0 220 63.4" style="enable-background:new 0 0 220 63.4;" xml:space="preserve">
 
<path fill="#d11242" class="st0" d="M39.8,52.2h4.9c1-0.1,2.1,0.3,2.9,1c0.5,0.5,0.8,1.1,0.7,1.8l0,0c0,1.1-0.6,2-1.6,2.4c1.3,0.2,2.2,1.4,2.2,2.7  l0,0c0,2-1.6,3-4.1,3h-5.1L39.8,52.2z M46.4,55.3c0-0.9-0.7-1.4-1.9-1.4h-2.7v2.9h2.6C45.6,56.8,46.4,56.3,46.4,55.3L46.4,55.3z   M44.7,58.4h-3v3H45c1.3,0,2.1-0.5,2.1-1.5l0,0C47,59,46.3,58.5,44.7,58.4L44.7,58.4z M73.7,52.2h2.1l2.6,8.1l2.7-8.1h1.6l2.7,8.1  l2.6-8.1h2l-3.8,11h-1.6l-2.7-7.9l-2.7,7.9h-1.6L73.7,52.2z M98.3,58.9l-4.4-6.7h2.3l3.1,4.9l3.1-4.9h2.2l-4.4,6.6v4.4h-2V58.9z   M56.6,58.9l-4.4-6.7h2.3l3.1,4.9l3.1-4.9h2.2l-4.4,6.6v4.4h-2V58.9z M109.5,52.2h1.8l5.9,7.6v-7.6h1.9v11h-1.6l-6-7.8v7.8h-1.9  L109.5,52.2z M125.3,52.2h4.1c3-0.2,5.6,2.1,5.8,5.1c0,0.1,0,0.2,0,0.4l0,0c0,3-2.5,5.5-5.5,5.5c-0.1,0-0.2,0-0.4,0h-4.1V52.2z   M127.2,53.9v7.5h2.2c2,0.1,3.7-1.3,3.8-3.3c0-0.1,0-0.3,0-0.4l0,0c0.1-2-1.5-3.7-3.5-3.7c-0.1,0-0.2,0-0.4,0L127.2,53.9z   M140.1,52.2h1.9v4.6h5.3v-4.6h1.9v11h-2v-4.6H142v4.6H140L140.1,52.2z M158.3,52.2h1.9l4.8,11h-2l-1.1-2.7h-5.2l-1.1,2.7h-2  L158.3,52.2z M161.1,58.8l-1.9-4.3l-1.9,4.4L161.1,58.8z M169.4,52.2h2.1l3.3,5.2l3.3-5.2h2.1v11h-1.9v-7.9l-3.5,5.2l0,0l-3.4-5.2  v7.8h-1.9L169.4,52.2z M217.5,9.4c1.4,0,2.5,1.1,2.5,2.5c0,1.4-1.1,2.5-2.5,2.5c-1.4,0-2.5-1.1-2.5-2.5c0,0,0,0,0,0  C215,10.5,216.1,9.4,217.5,9.4L217.5,9.4z M217.5,9.8c-1.2,0-2.1,0.9-2.2,2s0.9,2.1,2,2.2c1.2,0,2.1-0.9,2.2-2c0,0,0-0.1,0-0.1  C219.5,10.7,218.7,9.8,217.5,9.8C217.5,9.8,217.5,9.8,217.5,9.8L217.5,9.8z M216.9,13.3h-0.4v-2.9h1.1c0.7,0,1,0.3,1,0.8  c0,0.4-0.3,0.8-0.7,0.8c0,0,0,0,0,0l0.8,1.3h-0.5l-0.8-1.2H217L216.9,13.3z M216.9,11.6h0.5c0.5,0,0.7-0.1,0.7-0.5s-0.1-0.4-0.6-0.4  h-0.6V11.6z M50.4,9.4l12.9,31.6H58l-3.8-9.4H42.7L38.8,41h-5.1L46.9,9.4L50.4,9.4z M48.5,17.2l-4.1,10.1h8.1L48.5,17.2z M104.5,10  l3.6,31H103l-2.1-20.5l-9.4,20.5h-3.1l-9.3-20l-2.2,20h-4.8l3.8-31h3.5l10.9,23.4L101,10L104.5,10z M130,9.4l-13.1,31.6h5.2l3.9-9.5  h11.5l3.8,9.5h5.4l-13-31.6L130,9.4z M135.6,27.3h-8.1l4.1-10.1L135.6,27.3z M164.9,9.9c-1.1,0-3.3,0-5.7,0.2l-2.4,0.1v30.6h0.5  c2.6,0.2,4.3,0.3,6.6,0.3c3.6,0.1,7.2-0.4,10.7-1.5c5.3-2,8.9-7.6,8.9-14c0.1-4.3-1.6-8.4-4.6-11.4C175.6,11.4,170.9,9.9,164.9,9.9  L164.9,9.9z M161.9,36.4V14.4c0.8,0,1.3,0,2,0c2.8-0.1,5.6,0.5,8.2,1.6c3.8,2,6.1,5.9,5.9,10.2c0.1,2.7-0.9,5.3-2.6,7.3  c-2,2.3-4.9,3.3-9.8,3.3C164.4,36.8,163.2,36.7,161.9,36.4L161.9,36.4z M203.5,9.4l-13.1,31.6h5.2l3.8-9.5h11.5l3.8,9.5h5.3L207,9.4  L203.5,9.4z M209.1,27.3h-8l4.1-10.1L209.1,27.3z M17.3,22l11.5,17.4l-5.2,2.4l-13-20.2l1-2.2h0.2c4.8-0.6,7.9-3.6,7.9-7.7  c0-4.5-2.4-6.6-8.1-6.6c-1.2,0-4.8,0.1-5.9,0.1v35.7H0V1.1h0.3c0.1,0,9.4-0.3,11.3-0.3c3.7,0,13.7,0,13.7,10.4  C25.3,18.5,19.3,21.1,17.3,22L17.3,22z"/>
</svg>