<svg xmlns="http://www.w3.org/2000/svg" xmlns:xlink="http://www.w3.org/1999/xlink" version="1.1" id="Layer_1" x="0px" y="0px" width="3426.311px" height="1402.121px" viewBox="0 0 3426.311 1402.121" enable-background="new 0 0 3426.311 1402.121" xml:space="preserve">
    <path d="M1527.9,423.32c-0.039,55.742-45.26,100.896-101,100.857c-55.742-0.038-100.898-45.258-100.86-101  c0.038-55.714,45.215-100.86,100.93-100.86c55.742,0,100.933,45.188,100.933,100.93C1527.9,423.273,1527.9,423.297,1527.9,423.32z   M1995.98,322.32c-55.748-0.005-100.945,45.183-100.95,100.93c-0.006,55.748,45.183,100.944,100.931,100.95  c55.729,0.005,100.916-45.152,100.949-100.88c0.039-55.742-45.118-100.961-100.859-101  C1996.027,322.32,1996.004,322.32,1995.98,322.32z M2280.6,423.32c0,157.12-127.487,284.5-284.619,284.5  c-71.692,0.1-140.763-26.978-193.288-75.771l-91.16,99.17l-91.21-99.279c-52.535,48.827-121.628,75.927-193.353,75.828  c-157.13,0-284.51-127.379-284.51-284.5c-0.1-80.039,33.604-156.398,92.8-210.27l-93.09-101.29h206.91  C1455.807,38.689,1582.164-0.261,1711.48,0c134.947,0,259.697,41.17,363,111.71h206.379L2187.77,213  C2246.992,266.875,2280.706,343.258,2280.6,423.32z M1619.51,423.32c0-106.34-86.199-192.54-192.54-192.54  c-106.34,0-192.54,86.15-192.54,192.54c0,106.39,86.2,192.54,192.54,192.54C1533.311,615.86,1619.51,529.6,1619.51,423.32z   M1925.189,135.88c-136.755-56.973-290.598-56.973-427.352,0c121.53,46.44,213.689,155.14,213.689,281.84  c0-126.688,92.141-235.4,213.66-281.89v0.05H1925.189z M2188.52,423.32c0-106.34-86.197-192.54-192.539-192.54  c-106.341,0-192.541,86.15-192.541,192.54c0,106.39,86.2,192.54,192.541,192.54C2102.32,615.86,2188.52,529.6,2188.52,423.32z   M400.19,999.32v-60.16h-92.25v358h92.25V1082.4c0-38.869,25-57.949,63.829-57.949h50.461V939.08h-43.16  c-33.71,0-63,17.611-71.13,60.16V999.32L400.19,999.32z M600.92,797.48c-31.55,0-55.75,24.938-55.75,56.488  c0,30.789,24.96,55.75,55.75,55.75s55.75-24.961,55.75-55.75C656.67,822.419,632.46,797.48,600.92,797.48z M554.92,1297.041h92v-358  h-92V1297.041z M1085.36,1118.041c0,102.18-82.83,185-185,185c-39.218,0.184-77.396-12.584-108.61-36.32v135.4h-92v-463h92v30.199  c31.208-23.717,69.373-36.473,108.57-36.279c102.173,0,185,82.826,185,185c0,0.006,0,0.014,0,0.02L1085.36,1118.041z   M992.74,1118.041c0-55.51-45-100.51-100.51-100.51c-55.513,0-100.513,45-100.513,100.51s45,100.51,100.513,100.51  c0.003,0,0.006,0,0.01,0c55.494-0.012,100.479-44.996,100.49-100.49L992.74,1118.041z M2685.07,1086.64l-53.69-14.729  c-35.33-9.199-49.09-20-49.09-38.699c0-18.201,19.34-30.91,47-30.91c26.37,0,47,17.271,47,39.32v2h84.82v-2  c0-65-53-108.602-131.841-108.602c-78.119,0-134.819,43.609-134.819,103.689c0,46.76,31,82,85,96.609l51.42,14  c39.06,10.811,53.59,22.818,53.59,44.311c0,22.689-21,37.932-52.24,37.932c-32.58,0-54.47-20.602-54.47-51.25v-2h-90v2  c0,73.438,59.12,124.729,143.77,124.729c81.57,0,140.78-50.1,140.78-119.121c0.021-33.729-15.12-78.027-87.239-97.26  L2685.07,1086.64z M1411.87,939.06h92v358.001h-92v-30.278c-31.217,23.732-69.396,36.502-108.61,36.316  c-102.188,0-185-82.84-185-185c0-102.158,82.84-185,185-185c39.201-0.213,77.376,12.52,108.603,36.223L1411.87,939.06z   M1411.87,1118.061L1411.87,1118.061c0-55.511-45-100.511-100.51-100.511c-55.513,0-100.513,45-100.513,100.511  c0,55.493,44.978,100.487,100.473,100.511c55.51,0.018,100.521-44.97,100.54-100.48c0-0.012,0-0.023,0-0.039L1411.87,1118.061z   M1836.22,811.66h92v485.371h-92v-30.281c-31.216,23.736-69.395,36.504-108.608,36.32c-102.189,0-185-82.84-185-185  c0-102.172,82.826-185,185-185c39.203-0.205,77.381,12.537,108.601,36.25L1836.22,811.66z M1836.22,1118.05  c0-55.51-44.999-100.51-100.51-100.51c-55.51,0-100.51,45-100.51,100.51c0,55.511,45,100.511,100.51,100.511  c55.503-0.007,100.495-44.998,100.5-100.5L1836.22,1118.05z M2355.61,1297.05h92v-358h-92V1297.05z M2401.61,797.49  c-31.54,0-55.74,24.938-55.74,56.49c0,30.787,24.96,55.75,55.75,55.75s55.75-24.963,55.75-55.75l0,0  c-0.05-31.562-24.22-56.5-55.771-56.5L2401.61,797.49z M3372.22,939.679c-33.739,0-63.08,17.604-71.147,60.15v-60.74h-92.262v358  h92.262v-214c0-38.879,24.938-58,63.818-58h54.432V939.72L3372.22,939.679z M3170.16,1118.07c0,102.18-82.83,185-185,185  s-185-82.84-185-185s82.84-185,185-185c102.165,0.006,184.982,82.822,184.99,184.988L3170.16,1118.07z M3085.65,1118.07  c0-55.512-45-100.512-100.513-100.512c-55.51,0-100.51,45-100.51,100.512c0,55.51,45,100.51,100.51,100.51  c55.513-0.006,100.507-45.01,100.501-100.521l0,0L3085.65,1118.07z M353.07,811.669H0v82.111h130.68v403.26h91.7V893.78h130.69  V811.669z M2138.57,1199.009l-81.87-259.93h-96.671l122.801,358h110.75l123.52-358h-96.67L2138.57,1199.009z"/>
    </svg>